
<svg xmlns="http://www.w3.org/2000/svg" width="45" height="23" class="fill-current text-gray-700 transition-colors duration-200 ease-in-out hover:text-gray-900 dark:text-gray-300 dark:hover:text-gray-100" >
    <path d="M20.525 0H0v.19l.578 1.05.771 1.05.964.86 1.156.763 1.542.572 1.638.191 13.683.096.867.382.482.477.385.763V7.54l-.096.382-.385.573-.771.572-.867.191-10.407.096v.19l.481.86.964 1.336.77.668 1.06.763 1.157.477 1.157.287 9.443.095.578.095.674.287.482.382.482.954v1.05l-.096.381-.386.573-.482.477-.77.287-6.071.095v.286l.674 1.145.868 1.146.578.477.77.572 1.542.764H45L33.533 7.158l-1.252-1.623-1.06-1.05-1.35-1.145-1.348-.954-2.024-1.05-1.83-.668-2.024-.477L20.524 0Z" />
</svg>