<svg width="45" height="23" viewBox="0 0 45 23" fill="none" xmlns="http://www.w3.org/2000/svg">
<path d="M20.5246 0H0V0.190871L0.578158 1.24066L1.34904 2.29046L2.31263 3.14938L3.46895 3.91286L5.01071 4.48548L6.64882 4.67635L20.3319 4.77178L21.1991 5.15353L21.6809 5.63071L22.0664 6.39419V7.53942L21.97 7.92116L21.5846 8.49378L20.8137 9.06639L19.9465 9.25726L9.53961 9.3527V9.54357L10.0214 10.4025L10.985 11.7386L11.7559 12.4066L12.8158 13.1701L13.9722 13.6473L15.1285 13.9336L24.5717 14.029L25.1499 14.1245L25.8244 14.4108L26.3062 14.7925L26.788 15.7469V16.7967L26.6916 17.1784L26.3062 17.751L25.8244 18.2282L25.0535 18.5145L18.9829 18.61V18.8963L19.6574 20.0415L20.5246 21.1867L21.1028 21.6639L21.8737 22.2365L23.4154 23H33.5332H45L33.5332 7.15768L32.2805 5.53527L31.2206 4.48548L29.8715 3.34025L28.5225 2.38589L26.4989 1.3361L24.6681 0.66805L22.6445 0.190871L20.5246 0Z" fill="white"/>
</svg>
